<svg width="1240" height="546" viewBox="0 0 1240 546" fill="none" xmlns="http://www.w3.org/2000/svg">
<path d="M19.0006 357.067C18.8997 356.883 18.6682 356.816 18.4827 356.917L13.9169 359.414C13.7314 359.516 13.4999 359.448 13.399 359.264L12.4505 357.53C12.3496 357.345 12.418 357.114 12.6035 357.013L15.4921 355.433C15.6776 355.331 15.746 355.1 15.6451 354.916L14.4068 352.652C14.306 352.467 14.0745 352.4 13.889 352.502L11.0003 354.081C10.8149 354.183 10.5833 354.116 10.4825 353.931L8.77847 350.816C8.6776 350.631 8.44609 350.564 8.26062 350.666L5.98362 351.911C5.79815 352.013 5.72974 352.244 5.83061 352.428L7.53462 355.544C7.63548 355.728 7.56708 355.959 7.3816 356.061L4.49294 357.641C4.30746 357.742 4.23906 357.973 4.33992 358.158L5.57823 360.422C5.67909 360.606 5.9106 360.673 6.09608 360.572L8.98474 358.992C9.17022 358.89 9.40173 358.958 9.50259 359.142L10.4512 360.876C10.552 361.061 10.4836 361.292 10.2982 361.393L5.73233 363.89C5.54686 363.992 5.47845 364.223 5.57932 364.407L6.81762 366.672C6.91848 366.856 7.15 366.923 7.33547 366.822L11.9013 364.324C12.0868 364.223 12.3183 364.29 12.4191 364.475L19.6465 377.689C19.7474 377.874 19.9789 377.941 20.1644 377.839L22.4414 376.594C22.6268 376.492 22.6952 376.261 22.5944 376.077L15.367 362.862C15.2661 362.678 15.3345 362.447 15.52 362.345L20.0858 359.848C20.2713 359.747 20.3397 359.516 20.2389 359.331L19.0006 357.067Z" fill="#E4032E"/>
<path fill-rule="evenodd" clip-rule="evenodd" d="M954.542 16.8505C954.78 17.4634 954.673 18.1275 954.311 18.6253C955.15 19.1908 956.255 19.8791 957.41 20.4416C959.433 21.4252 961.224 21.9493 962.55 21.9937C964.562 22.0573 966.361 21.0998 966.602 19.3868C966.844 17.6737 965.382 16.2913 963.434 15.7909C961.807 15.3719 960.465 15.419 957.95 15.8965L957.952 15.9014C956.71 16.1366 955.486 16.5163 954.542 16.8505ZM954.26 18.6916C954.066 18.9349 953.808 19.1333 953.498 19.259C953.202 19.3791 952.894 19.4184 952.598 19.3874C952.524 20.3966 952.476 21.6955 952.563 22.9712C952.71 25.2175 953.143 27.0225 953.766 28.1912C954.712 29.9594 956.44 31.0225 958.048 30.3711C959.655 29.7197 960.133 27.7564 959.598 25.8272C959.155 24.2091 958.445 23.0812 956.778 21.1487C955.958 20.1996 955.02 19.3369 954.26 18.6916ZM952.521 19.3778C951.911 19.2884 951.362 18.8991 951.092 18.3032C950.178 18.7514 949.025 19.3701 947.959 20.0944C946.092 21.3649 944.741 22.6487 944.039 23.7779C942.98 25.4855 942.921 27.507 944.29 28.5617C945.664 29.6144 947.597 29.0306 949.006 27.5921C950.183 26.39 950.806 25.2073 951.648 22.7943C952.062 21.6055 952.342 20.3593 952.521 19.3778ZM957.629 14.9647C956.564 15.6855 955.412 16.3021 954.499 16.7496C954.228 16.1568 953.675 15.7704 953.064 15.6838C953.243 14.7012 953.523 13.4517 953.939 12.2599L953.941 12.2648C954.782 9.85184 955.41 8.66711 956.582 7.46703C957.991 6.0285 959.929 5.44273 961.298 6.49744C962.667 7.55215 962.608 9.57366 961.549 11.2812C960.852 12.4084 959.497 13.6942 957.629 14.9647ZM952.871 15.6665L953.022 12.0948C952.87 9.85053 952.437 8.04555 951.814 6.87685C950.868 5.10865 949.145 4.04347 947.532 4.6969C945.925 5.34834 945.447 7.31164 945.982 9.2408C946.428 10.852 947.14 11.9848 948.805 13.9124C949.628 14.8653 950.57 15.73 951.331 16.375C951.526 16.1294 951.786 15.9292 952.097 15.803C952.351 15.7002 952.614 15.6569 952.871 15.6665ZM951.294 16.423C950.469 15.8593 949.384 15.1794 948.243 14.6367C945.939 13.5389 944.654 13.1462 942.974 13.1366C940.961 13.1251 939.183 14.0913 938.965 15.8061C938.747 17.521 940.233 18.9052 942.192 19.3496C943.487 19.6409 945.35 19.5934 947.567 19.1572C948.831 18.9071 950.083 18.5222 951.044 18.1888C950.813 17.5761 950.928 16.9158 951.294 16.423Z" fill="#E4032E"/>
<rect x="995.777" y="134.59" width="15.6538" height="15.6538" rx="2.5" transform="rotate(-17.5056 995.777 134.59)" stroke="#D3D3D3" stroke-width="3"/>
<rect x="164.634" y="353.563" width="15.6538" height="15.6538" rx="2.5" transform="rotate(21.3214 164.634 353.563)" stroke="#D3D3D3" stroke-width="3"/>
<path d="M1235.36 56.0579L1231.9 43.5339L1219.38 46.9902L1235.36 56.0579Z" stroke="#D3D3D3" stroke-width="3" stroke-linecap="round" stroke-linejoin="round"/>
<path d="M1138.34 265.52C1141.74 262.115 1141.73 256.611 1138.34 253.217C1134.94 249.822 1129.42 249.812 1126.02 253.206L1138.34 265.52Z" stroke="#D3D3D3" stroke-width="3" stroke-linecap="round" stroke-linejoin="round"/>
<rect x="1085.26" y="354.59" width="15.6538" height="15.6538" rx="2.5" transform="rotate(-17.5056 1085.26 354.59)" stroke="#D3D3D3" stroke-width="3"/>
<path d="M799.289 200.847L794.615 188.724L782.493 193.398L799.289 200.847Z" stroke="#D3D3D3" stroke-width="3" stroke-linecap="round" stroke-linejoin="round"/>
<path d="M652.285 304.886C650.399 300.455 645.289 298.408 640.873 300.287C636.456 302.167 634.381 307.288 636.26 311.705L652.285 304.886Z" stroke="#D3D3D3" stroke-width="3" stroke-linecap="round" stroke-linejoin="round"/>
<path d="M448.892 334.55L436.84 329.697L431.987 341.749L448.892 334.55Z" stroke="#D3D3D3" stroke-width="3" stroke-linecap="round" stroke-linejoin="round"/>
<rect x="563.882" y="528.59" width="15.6538" height="15.6538" rx="2.5" transform="rotate(-17.5056 563.882 528.59)" stroke="#D3D3D3" stroke-width="3"/>
<circle cx="702" cy="16" r="7.5" stroke="#D3D3D3" stroke-width="3"/>
<circle cx="96" cy="453" r="7.5" stroke="#D3D3D3" stroke-width="3"/>
</svg>
