<svg width="24" height="24" viewBox="0 0 24 24" fill="none" xmlns="http://www.w3.org/2000/svg">
<path d="M15.8366 4.39923C16.8652 4.40231 17.8507 4.81225 18.578 5.53956C19.3053 6.26684 19.7153 7.25239 19.7183 8.28095V16.0435C19.7153 17.0721 19.3053 18.0576 18.578 18.7849C17.8507 19.5122 16.8652 19.9221 15.8366 19.9252H8.07407C7.04552 19.9221 6.05997 19.5122 5.33268 18.7849C4.60537 18.0576 4.19543 17.0721 4.19235 16.0435V8.28095C4.19543 7.25239 4.60537 6.26684 5.33268 5.53956C6.05997 4.81225 7.04552 4.40231 8.07407 4.39923H15.8366ZM15.8366 2.8468H8.07407C5.08522 2.8468 2.63992 5.2921 2.63992 8.28095V16.0435C2.63992 19.0324 5.08522 21.4777 8.07407 21.4777H15.8366C18.8255 21.4777 21.2708 19.0324 21.2708 16.0435V8.28095C21.2708 5.2921 18.8255 2.8468 15.8366 2.8468Z" fill="#E4032E"/>
<path d="M17.0018 8.28088C16.7715 8.28088 16.5464 8.21259 16.3549 8.08465C16.1634 7.95669 16.0141 7.77483 15.926 7.56206C15.8378 7.34929 15.8148 7.11516 15.8597 6.8893C15.9047 6.66341 16.0156 6.45592 16.1784 6.29307C16.3412 6.13022 16.5487 6.01934 16.7746 5.9744C17.0005 5.92947 17.2346 5.95253 17.4474 6.04066C17.6601 6.1288 17.842 6.27804 17.97 6.46954C18.0979 6.66101 18.1662 6.88616 18.1662 7.11645C18.1665 7.26946 18.1366 7.42103 18.0782 7.56245C18.0198 7.70388 17.9341 7.83237 17.8259 7.94056C17.7177 8.04876 17.5892 8.13451 17.4478 8.19291C17.3063 8.25132 17.1548 8.28121 17.0018 8.28088Z" fill="#E4032E"/>
<path d="M11.9553 9.05695C12.5695 9.05695 13.1698 9.23906 13.6805 9.58028C14.1911 9.92149 14.5892 10.4065 14.8242 10.9739C15.0592 11.5413 15.1207 12.1657 15.0009 12.768C14.8811 13.3704 14.5853 13.9237 14.1511 14.358C13.7168 14.7923 13.1635 15.088 12.5611 15.2078C11.9587 15.3276 11.3344 15.2662 10.767 15.0311C10.1995 14.7961 9.71455 14.3981 9.37334 13.8874C9.03212 13.3768 8.85001 12.7764 8.85001 12.1622C8.85088 11.3389 9.17833 10.5496 9.7605 9.96742C10.3427 9.38527 11.132 9.05782 11.9553 9.05695ZM11.9553 7.50452C11.0341 7.50452 10.1335 7.77768 9.3676 8.28947C8.60165 8.80126 8.00466 9.5287 7.65212 10.3798C7.29959 11.2309 7.20736 12.1674 7.38708 13.0709C7.56679 13.9744 8.0104 14.8043 8.66178 15.4557C9.31319 16.1071 10.1431 16.5507 11.0466 16.7304C11.9501 16.9102 12.8866 16.8179 13.7377 16.4654C14.5888 16.1129 15.3162 15.5159 15.828 14.7499C16.3398 13.9839 16.613 13.0834 16.613 12.1622C16.613 10.9269 16.1223 9.74221 15.2488 8.86872C14.3753 7.99523 13.1906 7.50452 11.9553 7.50452Z" fill="#E4032E"/>
</svg>
