<svg width="198" height="77" viewBox="0 0 198 77" fill="none" xmlns="http://www.w3.org/2000/svg">
<g clip-path="url(#clip0_1_503)">
<path d="M20.0154 11.6074C20.0154 10.6887 20.6664 9.56392 21.4654 9.10456L36.7167 0.341583C37.5156 -0.117767 38.8235 -0.117767 39.6225 0.341583L54.8738 9.10456C55.6727 9.56392 56.3237 10.6887 56.3237 11.6074V29.1275C56.3237 30.0462 55.6727 31.171 54.8738 31.6304L39.6225 40.3934C38.8235 40.8527 37.5156 40.8527 36.7167 40.3934L21.4654 31.6304C20.6664 31.171 20.0154 30.0462 20.0154 29.1275V11.6074Z" fill="#E4032E"/>
<path d="M63.0705 41.4299H52.1454C51.5418 41.4299 51.0624 41.583 50.7191 41.8833C50.37 42.1837 50.1983 42.5724 50.1983 43.0553V46.7065H61.3956V53.2022H50.1983V65.2454H40.3622V41.0235C40.3622 38.9211 41.0547 37.2133 42.4455 35.9059C43.8362 34.5985 45.6176 33.9448 47.7955 33.9448C55.4123 33.9448 60.6499 34.1568 63.5202 34.575L63.0705 41.4299Z" fill="#575756"/>
<path d="M82.1034 58.52H73.5398L71.9537 65.2395H61.9341L70.048 36.6479C70.2611 35.8941 70.6694 35.2875 71.2731 34.8223C71.8768 34.357 72.5692 34.1215 73.3563 34.1215H82.2869C83.074 34.1215 83.7665 34.3511 84.3701 34.8223C84.9738 35.2875 85.3821 35.9 85.5952 36.6479L93.7091 65.2395H83.6895L82.1034 58.52ZM80.5174 51.6651L78.9786 44.9927C78.7064 43.5794 78.5229 42.3898 78.4341 41.4298H77.2091C77.0256 42.8432 76.8481 44.0328 76.6646 44.9927L75.1259 51.6651H80.5174Z" fill="#575756"/>
<path d="M123.933 65.2394H113.648L111.606 55.9936C111.422 55.1514 111.144 54.5919 110.765 54.3034C110.387 54.0207 109.777 53.8735 108.931 53.8735H105.895V65.2394H96.2421V34.1214C99.3255 33.8211 103.752 33.668 109.523 33.668C114.233 33.668 117.613 34.357 119.655 35.7409C121.696 37.1249 122.714 39.5924 122.714 43.1376C122.714 47.6487 120.596 50.1162 116.37 50.5344V50.8053C119.211 51.1645 120.915 52.7899 121.489 55.6755L123.933 65.2394ZM105.895 46.9773H109.292C110.712 46.9773 111.653 46.7653 112.127 46.3472C112.594 45.9291 112.825 45.0693 112.825 43.7737C112.825 42.4781 112.588 41.6241 112.127 41.2001C111.659 40.782 110.712 40.57 109.292 40.57H105.895V46.9773Z" fill="#575756"/>
<path d="M149.814 57.937L150.27 64.839C147.245 65.2336 141.824 65.4279 133.994 65.4279C131.846 65.4279 130.088 64.7742 128.715 63.4669C127.336 62.1595 126.65 60.4516 126.65 58.3492V41.0294C126.65 38.927 127.336 37.2191 128.715 35.9118C130.088 34.6044 131.846 33.9507 133.994 33.9507C141.818 33.9507 147.245 34.1509 150.27 34.5396L149.814 41.4416H138.35C137.776 41.4416 137.32 41.5947 136.989 41.8951C136.658 42.1954 136.492 42.5841 136.492 43.067V46.0881H148.186V52.5838H136.492V56.3293C136.492 56.8122 136.658 57.2009 136.989 57.5012C137.32 57.8015 137.776 57.9547 138.35 57.9547H149.814V57.937Z" fill="#575756"/>
<path d="M166.669 54.7333L160.461 52.0302C157.922 50.9172 156.123 49.6451 155.069 48.22C154.01 46.7948 153.483 44.9339 153.483 42.6489C153.483 39.1625 154.436 36.7598 156.336 35.4524C158.241 34.145 161.579 33.4913 166.349 33.4913C171.119 33.4913 174.706 34.0155 177.73 35.0696L177.138 41.3356C173.51 41.2767 169.841 41.2473 166.124 41.2473C164.976 41.2473 164.207 41.3238 163.81 41.4711C163.42 41.6183 163.219 41.9363 163.219 42.4192C163.219 42.8432 163.408 43.1966 163.787 43.4792C164.166 43.7678 164.882 44.1212 165.941 44.5393L171.605 46.8832C174.173 47.9962 175.984 49.2741 177.044 50.717C178.103 52.1598 178.63 54.0384 178.63 56.3528C178.63 59.8686 177.706 62.3362 175.866 63.7495C174.025 65.1629 170.681 65.8696 165.852 65.8696C161.775 65.8696 157.738 65.3573 153.749 64.3384L154.341 57.4835C160.325 57.6366 164.118 57.7073 165.716 57.7073C166.953 57.7073 167.776 57.6308 168.184 57.4835C168.592 57.3363 168.794 57.0477 168.794 56.6237C168.794 56.1997 168.652 55.8581 168.362 55.5872C168.072 55.3163 167.509 55.0337 166.663 54.7333H166.669Z" fill="#575756"/>
<path d="M44.0553 69.8388H41.7708C41.5637 69.8388 41.4157 69.88 41.327 69.9684C41.2441 70.0567 41.1968 70.198 41.1968 70.41V71.7351H43.7179V72.4536H41.1968V75.2273H40.3031V70.2216C40.3031 69.8623 40.4155 69.5797 40.6404 69.3794C40.8594 69.1792 41.1672 69.0791 41.5459 69.0791C42.7237 69.0791 43.5759 69.1085 44.1026 69.1615L44.0553 69.8447V69.8388Z" fill="#575756"/>
<path d="M45.1915 71.2993C45.5052 70.9459 46.0438 70.7751 46.8013 70.7751C47.5588 70.7751 48.0915 70.9459 48.4111 71.2993C48.7247 71.6467 48.8845 72.2356 48.8845 73.066C48.8845 73.8964 48.7247 74.4853 48.4111 74.8268C48.0974 75.1684 47.5588 75.3451 46.8013 75.3451C46.0438 75.3451 45.5111 75.1743 45.1915 74.8268C44.8779 74.4853 44.7181 73.8964 44.7181 73.066C44.7181 72.2356 44.8779 71.6467 45.1915 71.2993ZM47.7245 71.8352C47.5588 71.6173 47.2452 71.5054 46.7954 71.5054C46.3456 71.5054 46.0319 71.6173 45.8662 71.8352C45.7005 72.0531 45.6177 72.4653 45.6177 73.0719C45.6177 73.6785 45.7005 74.0789 45.8662 74.2968C46.0319 74.5147 46.3456 74.6266 46.7954 74.6266C47.2452 74.6266 47.5588 74.5147 47.7245 74.2968C47.8902 74.0789 47.9731 73.6667 47.9731 73.0719C47.9731 72.4771 47.8902 72.059 47.7245 71.8352Z" fill="#575756"/>
<path d="M50.7488 70.8929L50.802 71.5584C51.4885 71.0402 52.1336 70.7751 52.7314 70.7751C53.116 70.7751 53.412 70.8753 53.6132 71.0814C53.8144 71.2875 53.915 71.582 53.915 71.9765V75.2273H53.0509V72.2239C53.0509 71.953 53.0095 71.7645 52.9326 71.6585C52.8497 71.5525 52.7077 71.5054 52.5005 71.5054C52.2757 71.5054 52.0508 71.5584 51.82 71.6585C51.5951 71.7586 51.2814 71.9235 50.8908 72.1591V75.2332H50.0267V70.8929H50.7606H50.7488Z" fill="#575756"/>
<path d="M58.3419 75.2273L58.2708 74.6325C57.7086 75.1037 57.1405 75.3333 56.5545 75.3333C56.016 75.3333 55.6313 75.1449 55.3887 74.7621C55.146 74.3793 55.0276 73.8081 55.0276 73.0425C55.0276 72.2121 55.1638 71.6291 55.4301 71.2875C55.6964 70.946 56.1166 70.7752 56.6907 70.7752C57.2647 70.7752 57.7382 70.9047 58.1939 71.1639C58.1702 70.9106 58.1584 70.6221 58.1584 70.3099V69.0026H59.0224V75.2273H58.3419ZM58.1525 74.0436V71.7292C57.608 71.5879 57.1937 71.5172 56.9037 71.5172C56.5368 71.5172 56.2764 71.6173 56.1344 71.8234C55.9923 72.0296 55.9213 72.43 55.9213 73.0248C55.9213 73.6196 55.9923 74.0319 56.1344 74.2498C56.2764 74.4677 56.5131 74.5795 56.8505 74.5795C57.0694 74.5795 57.2647 74.5383 57.4364 74.4618C57.608 74.3852 57.8447 74.2439 58.1584 74.0377L58.1525 74.0436Z" fill="#575756"/>
<path d="M62.3248 73.5194L61.1116 73.2191C60.7506 73.1249 60.4902 72.9835 60.3422 72.7951C60.1942 72.6066 60.1173 72.3357 60.1173 71.9824C60.1173 71.4995 60.2475 71.1815 60.5079 71.0107C60.7683 70.8458 61.2122 70.7633 61.8454 70.7692C62.5438 70.781 63.1593 70.8281 63.7037 70.9164L63.6327 71.5407C62.7213 71.5112 62.1709 71.4995 61.9816 71.4995C61.5614 71.4995 61.2832 71.523 61.1589 71.576C61.0287 71.629 60.9636 71.7586 60.9636 71.9824C60.9636 72.0825 60.9695 72.1649 60.9932 72.2238C61.011 72.2886 61.0583 72.3357 61.1293 72.3769C61.2003 72.4182 61.2595 72.4476 61.301 72.4594C61.3424 72.4712 61.4371 72.5006 61.5791 72.5418L62.8101 72.8422C63.177 72.9364 63.4433 73.0719 63.5972 73.2485C63.7511 73.4252 63.828 73.6961 63.828 74.0612C63.828 74.5736 63.686 74.9093 63.4019 75.0683C63.1178 75.2332 62.6266 75.3156 61.9342 75.3156C61.3246 75.3156 60.7506 75.2744 60.2002 75.1919L60.2593 74.5559C60.5908 74.5854 61.0938 74.5971 61.7507 74.5971C62.2419 74.5971 62.5675 74.5618 62.7332 74.497C62.8989 74.4263 62.9817 74.285 62.9817 74.0671C62.9817 73.9729 62.9699 73.8904 62.9462 73.8316C62.9225 73.7668 62.8693 73.7197 62.7923 73.6725C62.7154 73.6313 62.6562 73.6019 62.6089 73.5901C62.5615 73.5783 62.4668 73.5489 62.3189 73.5135L62.3248 73.5194Z" fill="#575756"/>
<path d="M70.0066 75.2273L69.9356 74.6325C69.3734 75.1037 68.8052 75.3333 68.2193 75.3333C67.6867 75.3333 67.2961 75.1449 67.0535 74.7621C66.8108 74.3793 66.6924 73.8081 66.6924 73.0425C66.6924 72.2121 66.8286 71.6291 67.0949 71.2875C67.3612 70.946 67.7814 70.7752 68.3555 70.7752C68.9295 70.7752 69.403 70.9047 69.8587 71.1639C69.835 70.9106 69.8232 70.6221 69.8232 70.3099V69.0026H70.6932V75.2273H70.0126H70.0066ZM69.8173 74.0436V71.7292C69.2728 71.5879 68.8585 71.5172 68.5685 71.5172C68.2016 71.5172 67.9412 71.6173 67.7991 71.8234C67.6571 72.0296 67.5861 72.43 67.5861 73.0248C67.5861 73.6196 67.6571 74.0319 67.7932 74.2498C67.9353 74.4677 68.172 74.5795 68.5093 74.5795C68.7283 74.5795 68.9236 74.5383 69.0952 74.4618C69.2669 74.3852 69.5036 74.2439 69.8113 74.0377L69.8173 74.0436Z" fill="#575756"/>
<path d="M74.688 73.4782H72.729C72.7705 73.9258 72.8888 74.232 73.0841 74.3851C73.2794 74.5382 73.5931 74.6148 74.037 74.6148C74.4276 74.6148 74.9365 74.5795 75.5639 74.5088L75.6467 75.08C75.2502 75.2508 74.682 75.3392 73.9245 75.3392C73.167 75.3392 72.6225 75.1684 72.3029 74.8209C71.9833 74.4794 71.8235 73.8846 71.8235 73.0542C71.8235 72.2238 71.9774 71.6231 72.2911 71.2875C72.6048 70.9518 73.1196 70.781 73.8417 70.781C74.5104 70.781 74.9957 70.9047 75.2975 71.1461C75.5994 71.3876 75.7532 71.7527 75.7532 72.2415C75.7532 73.0719 75.3982 73.4841 74.6939 73.4841L74.688 73.4782ZM72.7231 72.8127H74.4572C74.7412 72.8127 74.8833 72.6184 74.8833 72.2356C74.8773 71.9706 74.8004 71.7821 74.6525 71.6703C74.5045 71.5584 74.25 71.5054 73.8772 71.5054C73.4511 71.5054 73.1492 71.5937 72.9835 71.7763C72.8178 71.9588 72.729 72.3004 72.7172 72.8127H72.7231Z" fill="#575756"/>
<path d="M78.8071 73.5194L77.5938 73.2191C77.2328 73.1249 76.9724 72.9835 76.8244 72.7951C76.6765 72.6066 76.5995 72.3357 76.5995 71.9824C76.5995 71.4995 76.7298 71.1815 76.9902 71.0107C77.2506 70.8458 77.6944 70.7633 78.3277 70.7692C79.026 70.781 79.6415 70.8281 80.186 70.9164L80.115 71.5407C79.2036 71.5112 78.6532 71.4995 78.4638 71.4995C78.0436 71.4995 77.7654 71.523 77.6412 71.576C77.5169 71.629 77.4518 71.7586 77.4518 71.9824C77.4518 72.0825 77.4636 72.1649 77.4755 72.2238C77.4932 72.2886 77.5405 72.3357 77.6116 72.3769C77.6826 72.4182 77.7418 72.4476 77.7832 72.4594C77.8246 72.4712 77.9193 72.5006 78.0613 72.5418L79.2923 72.8422C79.6593 72.9364 79.9256 73.0719 80.0795 73.2485C80.2333 73.4252 80.3103 73.6961 80.3103 74.0612C80.3103 74.5736 80.1682 74.9093 79.8842 75.0683C79.6001 75.2332 79.1089 75.3156 78.4164 75.3156C77.8069 75.3156 77.2328 75.2744 76.6824 75.1919L76.7475 74.5559C77.0789 74.5854 77.5761 74.5971 78.2389 74.5971C78.7242 74.5971 79.0556 74.5618 79.2213 74.497C79.387 74.4263 79.4699 74.285 79.4699 74.0671C79.4699 73.9729 79.4581 73.8904 79.4344 73.8316C79.4107 73.7668 79.3574 73.7197 79.2805 73.6725C79.2036 73.6313 79.1444 73.6019 79.097 73.5901C79.0556 73.5783 78.955 73.5489 78.8071 73.5135V73.5194Z" fill="#575756"/>
<path d="M83.4055 71.6114L83.3227 70.9813C84.1098 70.8458 84.8141 70.7751 85.4414 70.7751C85.974 70.7751 86.3587 70.8812 86.6132 71.0932C86.8618 71.3052 86.9861 71.6762 86.9861 72.2062V75.2273H86.3055L86.2049 74.5442C85.7018 75.0565 85.1218 75.3098 84.4649 75.3098C84.0625 75.3098 83.737 75.2037 83.4943 74.9917C83.2517 74.7797 83.1333 74.4735 83.1333 74.0848V73.6314C83.1333 73.2898 83.2398 73.0248 83.4529 72.8304C83.6659 72.642 83.9737 72.5478 84.3643 72.5478H86.1161V72.2121C86.1102 71.9471 86.0451 71.7645 85.9267 71.6585C85.8083 71.5584 85.5834 71.5054 85.2461 71.5054C84.9088 71.5054 84.3051 71.5407 83.3996 71.6114H83.4055ZM84.0151 73.7433V73.9729C84.0151 74.1849 84.0625 74.3381 84.169 74.4323C84.2696 74.5265 84.4294 74.5736 84.6543 74.5736C85.1692 74.5736 85.6663 74.3734 86.1279 73.967V73.1838H84.5359C84.3465 73.1838 84.2104 73.2368 84.1335 73.331C84.0565 73.4252 84.0151 73.5607 84.0151 73.7374V73.7433Z" fill="#575756"/>
<path d="M91.1347 69.5561H90.2529C89.9866 69.5561 89.7972 69.6032 89.6847 69.7092C89.5723 69.8094 89.519 69.986 89.519 70.2334V70.8929H90.8684V71.5584H89.519V75.2273H88.655V71.5584H87.8679V70.9342L88.655 70.8929V70.1391C88.655 69.721 88.7556 69.3971 88.9568 69.1851C89.158 68.9672 89.4894 68.8612 89.9452 68.8612C90.5074 68.8612 90.9276 68.8848 91.2057 68.926L91.1347 69.5679V69.5561Z" fill="#575756"/>
<path d="M94.5732 69.5561H93.6914C93.4251 69.5561 93.2357 69.6032 93.1232 69.7092C93.0108 69.8094 92.9575 69.986 92.9575 70.2334V70.8929H94.3069V71.5584H92.9575V75.2273H92.0935V71.5584H91.3063V70.9342L92.0935 70.8929V70.1391C92.0935 69.721 92.1941 69.3971 92.3953 69.1851C92.5965 68.9672 92.9279 68.8612 93.3896 68.8612C93.9518 68.8612 94.3661 68.8848 94.6501 68.926L94.5791 69.5679L94.5732 69.5561Z" fill="#575756"/>
<path d="M97.7809 73.4782H95.8219C95.8634 73.9258 95.9817 74.232 96.177 74.3851C96.3723 74.5382 96.686 74.6148 97.1299 74.6148C97.5145 74.6148 98.0235 74.5795 98.6568 74.5088L98.7396 75.08C98.349 75.2508 97.7749 75.3392 97.0174 75.3392C96.2599 75.3392 95.7154 75.1684 95.3958 74.8209C95.0762 74.4794 94.9164 73.8846 94.9164 73.0542C94.9164 72.2238 95.0703 71.6231 95.384 71.2875C95.6976 70.9518 96.2125 70.781 96.9345 70.781C97.6033 70.781 98.0886 70.9047 98.3904 71.1461C98.6923 71.3876 98.8461 71.7527 98.8461 72.2415C98.8461 73.0719 98.491 73.4841 97.7809 73.4841V73.4782ZM95.8101 72.8127H97.5441C97.8282 72.8127 97.9702 72.6184 97.9702 72.2356C97.9643 71.9706 97.8874 71.7821 97.7394 71.6703C97.5915 71.5584 97.337 71.5054 96.9641 71.5054C96.538 71.5054 96.2362 71.5937 96.0705 71.7763C95.9048 71.9588 95.816 72.3004 95.8042 72.8127H95.8101Z" fill="#575756"/>
<path d="M103.243 74.5148L103.326 75.0919C102.888 75.2509 102.379 75.3333 101.811 75.3333C101.048 75.3333 100.509 75.1626 100.196 74.821C99.8818 74.4794 99.728 73.8905 99.728 73.0543C99.728 72.218 99.8818 71.6291 100.196 71.2875C100.509 70.946 101.048 70.7693 101.811 70.7693C102.391 70.7693 102.876 70.84 103.255 70.9931L103.137 71.5408C102.693 71.5113 102.296 71.4995 101.959 71.4995C101.462 71.4995 101.113 71.6114 100.918 71.8293C100.722 72.0472 100.628 72.4595 100.628 73.0543C100.628 73.6491 100.728 74.0613 100.918 74.2792C101.113 74.4971 101.456 74.609 101.959 74.609C102.462 74.609 102.876 74.5736 103.243 74.5089V74.5148Z" fill="#575756"/>
<path d="M106.729 74.5265L106.824 75.1919C106.552 75.2685 106.208 75.3097 105.794 75.3097C105.427 75.3097 105.143 75.2037 104.948 74.9917C104.753 74.7797 104.658 74.4794 104.658 74.0907V71.5584H103.865V70.9341L104.658 70.8988V69.6208H105.516V70.8929H106.865V71.5584H105.516V73.9788C105.516 74.179 105.557 74.3203 105.646 74.4028C105.735 74.4852 105.877 74.5265 106.09 74.5265H106.723H106.729Z" fill="#575756"/>
<path d="M108.043 69.0378H108.451C108.617 69.0378 108.7 69.1203 108.7 69.2852V69.7858C108.7 69.9565 108.617 70.0449 108.451 70.0449H108.043C107.877 70.0449 107.794 69.9565 107.794 69.7858V69.2852C107.794 69.1203 107.877 69.0378 108.043 69.0378ZM108.676 75.2273H107.818V70.887H108.676V75.2273Z" fill="#575756"/>
<path d="M110.322 71.2993C110.635 70.9459 111.174 70.7751 111.931 70.7751C112.689 70.7751 113.222 70.9459 113.541 71.2993C113.855 71.6467 114.015 72.2356 114.015 73.066C114.015 73.8964 113.855 74.4853 113.541 74.8268C113.227 75.1684 112.689 75.3451 111.931 75.3451C111.174 75.3451 110.641 75.1743 110.322 74.8268C110.008 74.4853 109.848 73.8964 109.848 73.066C109.848 72.2356 110.008 71.6467 110.322 71.2993ZM112.855 71.8352C112.689 71.6173 112.381 71.5054 111.925 71.5054C111.47 71.5054 111.162 71.6173 110.996 71.8352C110.831 72.0531 110.748 72.4653 110.748 73.0719C110.748 73.6785 110.831 74.0789 110.996 74.2968C111.162 74.5147 111.476 74.6266 111.925 74.6266C112.375 74.6266 112.689 74.5147 112.855 74.2968C113.02 74.0789 113.103 73.6667 113.103 73.0719C113.103 72.4771 113.02 72.059 112.855 71.8352Z" fill="#575756"/>
<path d="M115.879 70.8929L115.932 71.5584C116.619 71.0402 117.258 70.7751 117.861 70.7751C118.246 70.7751 118.542 70.8753 118.743 71.0814C118.944 71.2875 119.045 71.582 119.045 71.9765V75.2273H118.181V72.2239C118.181 71.953 118.14 71.7645 118.063 71.6585C117.986 71.5525 117.838 71.5054 117.631 71.5054C117.406 71.5054 117.175 71.5584 116.956 71.6585C116.731 71.7586 116.417 71.9235 116.027 72.1591V75.2332H115.163V70.8929H115.897H115.879Z" fill="#575756"/>
<path d="M122.318 73.5194L121.099 73.2191C120.738 73.1249 120.483 72.9835 120.335 72.7951C120.187 72.6066 120.11 72.3357 120.11 71.9824C120.11 71.4995 120.241 71.1815 120.501 71.0107C120.761 70.8458 121.205 70.7633 121.838 70.7692C122.537 70.781 123.152 70.8281 123.697 70.9164L123.626 71.5407C122.714 71.5112 122.164 71.4995 121.975 71.4995C121.554 71.4995 121.276 71.523 121.146 71.576C121.016 71.629 120.957 71.7586 120.957 71.9824C120.957 72.0825 120.968 72.1649 120.98 72.2238C120.998 72.2886 121.045 72.3357 121.116 72.3769C121.187 72.4182 121.247 72.4476 121.288 72.4594C121.329 72.4712 121.424 72.5006 121.566 72.5418L122.797 72.8422C123.164 72.9364 123.43 73.0719 123.584 73.2485C123.738 73.4252 123.815 73.6961 123.815 74.0612C123.815 74.5736 123.673 74.9093 123.395 75.0683C123.111 75.2332 122.62 75.3156 121.927 75.3156C121.318 75.3156 120.744 75.2744 120.193 75.1919L120.258 74.5559C120.59 74.5854 121.087 74.5971 121.75 74.5971C122.235 74.5971 122.566 74.5618 122.732 74.497C122.898 74.4263 122.981 74.285 122.981 74.0671C122.981 73.9729 122.969 73.8904 122.945 73.8316C122.921 73.7668 122.874 73.7197 122.791 73.6725C122.714 73.6313 122.655 73.6019 122.608 73.5901C122.56 73.5783 122.466 73.5489 122.318 73.5135V73.5194Z" fill="#575756"/>
<path d="M129.68 70.7751L129.585 71.582H129.319C128.982 71.582 128.455 71.7468 127.757 72.0825V75.2273H126.893V70.887H127.561L127.65 71.5466C128.301 71.0284 128.911 70.7751 129.485 70.7751H129.692H129.68Z" fill="#575756"/>
<path d="M133.065 73.4782H131.112C131.154 73.9258 131.272 74.232 131.461 74.3851C131.651 74.5382 131.976 74.6148 132.414 74.6148C132.799 74.6148 133.308 74.5795 133.941 74.5088L134.024 75.08C133.633 75.2508 133.059 75.3392 132.302 75.3392C131.544 75.3392 131 75.1684 130.68 74.8209C130.361 74.4794 130.201 73.8846 130.201 73.0542C130.201 72.2238 130.355 71.6231 130.668 71.2875C130.982 70.9518 131.497 70.781 132.219 70.781C132.888 70.781 133.373 70.9047 133.675 71.1461C133.983 71.3876 134.131 71.7527 134.131 72.2415C134.131 73.0719 133.775 73.4841 133.071 73.4841L133.065 73.4782ZM131.1 72.8127H132.834C133.119 72.8127 133.261 72.6184 133.261 72.2356C133.261 71.9706 133.178 71.7821 133.036 71.6703C132.888 71.5584 132.633 71.5054 132.26 71.5054C131.834 71.5054 131.532 71.5937 131.367 71.7763C131.201 71.9588 131.106 72.3004 131.1 72.8127Z" fill="#575756"/>
<path d="M137.184 73.5194L135.971 73.2191C135.61 73.1249 135.35 72.9835 135.202 72.7951C135.054 72.6066 134.977 72.3357 134.977 71.9824C134.977 71.4995 135.107 71.1815 135.367 71.0107C135.628 70.8458 136.072 70.7633 136.705 70.7692C137.403 70.781 138.019 70.8281 138.563 70.9164L138.492 71.5407C137.581 71.5112 137.03 71.4995 136.841 71.4995C136.421 71.4995 136.143 71.523 136.013 71.576C135.888 71.629 135.823 71.7586 135.823 71.9824C135.823 72.0825 135.829 72.1649 135.847 72.2238C135.865 72.2886 135.912 72.3357 135.989 72.3769C136.06 72.4182 136.119 72.4476 136.161 72.4594C136.202 72.4712 136.297 72.5006 136.439 72.5418L137.67 72.8422C138.037 72.9364 138.297 73.0719 138.457 73.2485C138.611 73.4252 138.688 73.6961 138.688 74.0612C138.688 74.5736 138.546 74.9093 138.267 75.0683C137.983 75.2332 137.492 75.3156 136.8 75.3156C136.19 75.3156 135.616 75.2744 135.066 75.1919L135.131 74.5559C135.462 74.5854 135.959 74.5971 136.622 74.5971C137.107 74.5971 137.439 74.5618 137.605 74.497C137.77 74.4263 137.853 74.285 137.853 74.0671C137.853 73.9729 137.841 73.8904 137.818 73.8316C137.794 73.7668 137.747 73.7197 137.67 73.6725C137.593 73.6313 137.534 73.6019 137.486 73.5901C137.439 73.5783 137.344 73.5489 137.196 73.5135L137.184 73.5194Z" fill="#575756"/>
<path d="M140.475 70.8929L140.54 71.5584C140.765 71.3228 141.049 71.1344 141.38 70.993C141.712 70.8517 142.037 70.781 142.357 70.781C143.345 70.781 143.836 71.5525 143.836 73.0895C143.836 73.9081 143.706 74.4852 143.434 74.8268C143.168 75.1684 142.747 75.3392 142.173 75.3392C141.599 75.3392 141.067 75.1919 140.599 74.9034C140.623 75.1507 140.629 75.4452 140.617 75.7867V77.0058H139.759V70.8988H140.475V70.8929ZM140.623 72.1532V74.3557C141.227 74.5088 141.664 74.5854 141.943 74.5854C142.315 74.5854 142.576 74.4852 142.724 74.2791C142.872 74.073 142.943 73.6726 142.943 73.0778C142.943 72.483 142.872 72.1002 142.742 71.8705C142.611 71.6408 142.381 71.523 142.061 71.523C141.688 71.523 141.209 71.735 140.623 72.1532Z" fill="#575756"/>
<path d="M145.239 69.0378H145.653C145.819 69.0378 145.902 69.1203 145.902 69.2852V69.7858C145.902 69.9565 145.819 70.0449 145.653 70.0449H145.239C145.073 70.0449 144.991 69.9565 144.991 69.7858V69.2852C144.991 69.1203 145.073 69.0378 145.239 69.0378ZM145.872 75.2273H145.014V70.887H145.872V75.2273Z" fill="#575756"/>
<path d="M150.045 70.7751L149.944 71.582H149.678C149.34 71.582 148.82 71.7468 148.115 72.0825V75.2273H147.251V70.887H147.92L148.009 71.5466C148.66 71.0284 149.269 70.7751 149.843 70.7751H150.051H150.045Z" fill="#575756"/>
<path d="M150.891 71.6114L150.814 70.9813C151.601 70.8458 152.305 70.7751 152.933 70.7751C153.459 70.7751 153.85 70.8812 154.105 71.0932C154.353 71.3052 154.477 71.6762 154.477 72.2062V75.2273H153.803L153.702 74.5442C153.199 75.0565 152.619 75.3098 151.962 75.3098C151.554 75.3098 151.234 75.2037 150.992 74.9917C150.749 74.7797 150.631 74.4735 150.631 74.0848V73.6314C150.631 73.2898 150.737 73.0248 150.95 72.8304C151.163 72.642 151.471 72.5478 151.862 72.5478H153.613V72.2121C153.607 71.9471 153.548 71.7645 153.424 71.6585C153.306 71.5584 153.081 71.5054 152.743 71.5054C152.406 71.5054 151.802 71.5407 150.897 71.6114H150.891ZM151.501 73.7433V73.9729C151.501 74.1849 151.548 74.3381 151.654 74.4323C151.755 74.5265 151.921 74.5736 152.14 74.5736C152.655 74.5736 153.152 74.3734 153.613 73.967V73.1838H152.021C151.832 73.1838 151.696 73.2368 151.619 73.331C151.542 73.4252 151.501 73.5607 151.501 73.7374V73.7433Z" fill="#575756"/>
<path d="M158.194 74.5265L158.295 75.1919C158.022 75.2685 157.679 75.3097 157.265 75.3097C156.898 75.3097 156.614 75.2037 156.419 74.9917C156.223 74.7797 156.129 74.4794 156.129 74.0907V71.5584H155.336V70.9341L156.129 70.8988V69.6208H156.987V70.8929H158.336V71.5584H156.987V73.9788C156.987 74.179 157.028 74.3203 157.117 74.4028C157.2 74.4852 157.348 74.5265 157.561 74.5265H158.194Z" fill="#575756"/>
<path d="M159.514 71.2993C159.827 70.9459 160.366 70.7751 161.118 70.7751C161.869 70.7751 162.408 70.9459 162.727 71.2993C163.047 71.6467 163.201 72.2356 163.201 73.066C163.201 73.8964 163.041 74.4853 162.727 74.8268C162.414 75.1684 161.875 75.3451 161.118 75.3451C160.36 75.3451 159.827 75.1743 159.514 74.8268C159.194 74.4853 159.04 73.8964 159.04 73.066C159.04 72.2356 159.2 71.6467 159.514 71.2993ZM162.053 71.8352C161.887 71.6173 161.573 71.5054 161.124 71.5054C160.674 71.5054 160.36 71.6173 160.194 71.8352C160.029 72.0531 159.946 72.4653 159.946 73.0719C159.946 73.6785 160.029 74.0789 160.194 74.2968C160.36 74.5147 160.668 74.6266 161.124 74.6266C161.579 74.6266 161.887 74.5147 162.053 74.2968C162.218 74.0789 162.301 73.6667 162.301 73.0719C162.301 72.4771 162.218 72.059 162.053 71.8352Z" fill="#575756"/>
<path d="M164.598 69.0378H165.012C165.178 69.0378 165.26 69.1203 165.26 69.2852V69.7858C165.26 69.9565 165.178 70.0449 165.012 70.0449H164.598C164.432 70.0449 164.349 69.9565 164.349 69.7858V69.2852C164.349 69.1203 164.432 69.0378 164.598 69.0378ZM165.231 75.2273H164.373V70.887H165.231V75.2273Z" fill="#575756"/>
<path d="M169.403 70.7751L169.303 71.582H169.036C168.699 71.582 168.178 71.7468 167.474 72.0825V75.2273H166.61V70.887H167.279L167.367 71.5466C168.018 71.0284 168.628 70.7751 169.196 70.7751H169.403Z" fill="#575756"/>
<path d="M172.788 73.4782H170.835C170.877 73.9258 170.995 74.232 171.19 74.3851C171.38 74.5382 171.699 74.6148 172.143 74.6148C172.528 74.6148 173.043 74.5795 173.67 74.5088L173.753 75.08C173.362 75.2508 172.788 75.3392 172.031 75.3392C171.273 75.3392 170.729 75.1684 170.409 74.8209C170.09 74.4794 169.93 73.8846 169.93 73.0542C169.93 72.2238 170.09 71.6231 170.397 71.2875C170.711 70.9518 171.226 70.781 171.948 70.781C172.617 70.781 173.102 70.9047 173.404 71.1461C173.712 71.3876 173.86 71.7527 173.86 72.2415C173.86 73.0719 173.505 73.4841 172.794 73.4841L172.788 73.4782ZM170.824 72.8127H172.558C172.842 72.8127 172.984 72.6184 172.984 72.2356C172.984 71.9706 172.901 71.7821 172.759 71.6703C172.611 71.5584 172.356 71.5054 171.984 71.5054C171.557 71.5054 171.256 71.5937 171.09 71.7763C170.924 71.9588 170.829 72.3004 170.818 72.8127H170.824Z" fill="#575756"/>
<path d="M176.907 73.5194L175.694 73.2191C175.333 73.1249 175.073 72.9835 174.925 72.7951C174.777 72.6066 174.7 72.3357 174.7 71.9824C174.7 71.4995 174.83 71.1815 175.091 71.0107C175.351 70.8458 175.795 70.7633 176.428 70.7692C177.126 70.781 177.748 70.8281 178.286 70.9164L178.215 71.5407C177.304 71.5112 176.754 71.4995 176.564 71.4995C176.144 71.4995 175.866 71.523 175.736 71.576C175.611 71.629 175.546 71.7586 175.546 71.9824C175.546 72.0825 175.552 72.1649 175.57 72.2238C175.588 72.2886 175.635 72.3357 175.712 72.3769C175.783 72.4182 175.842 72.4476 175.884 72.4594C175.925 72.4712 176.02 72.5006 176.162 72.5418L177.399 72.8422C177.766 72.9364 178.026 73.0719 178.186 73.2485C178.34 73.4252 178.417 73.6961 178.417 74.0612C178.417 74.5736 178.275 74.9093 177.991 75.0683C177.706 75.2332 177.215 75.3156 176.523 75.3156C175.913 75.3156 175.339 75.2744 174.789 75.1919L174.854 74.5559C175.185 74.5854 175.682 74.5971 176.345 74.5971C176.831 74.5971 177.162 74.5618 177.328 74.497C177.493 74.4263 177.576 74.285 177.576 74.0671C177.576 73.9729 177.564 73.8904 177.541 73.8316C177.517 73.7668 177.47 73.7197 177.393 73.6725C177.316 73.6313 177.251 73.6019 177.209 73.5901C177.162 73.5783 177.067 73.5489 176.919 73.5135L176.907 73.5194Z" fill="#575756"/>
<path d="M181.506 71.6114L181.423 70.9813C182.21 70.8458 182.914 70.7751 183.542 70.7751C184.074 70.7751 184.459 70.8812 184.714 71.0932C184.962 71.3052 185.086 71.6762 185.086 72.2062V75.2273H184.406L184.305 74.5442C183.802 75.0565 183.222 75.3098 182.565 75.3098C182.163 75.3098 181.837 75.2037 181.595 74.9917C181.358 74.7797 181.234 74.4735 181.234 74.0848V73.6314C181.234 73.2898 181.34 73.0248 181.553 72.8304C181.766 72.642 182.068 72.5478 182.465 72.5478H184.216V72.2121C184.216 71.9471 184.145 71.7645 184.027 71.6585C183.909 71.5584 183.684 71.5054 183.352 71.5054C183.021 71.5054 182.406 71.5407 181.5 71.6114H181.506ZM182.116 73.7433V73.9729C182.116 74.1849 182.169 74.3381 182.269 74.4323C182.37 74.5265 182.53 74.5736 182.749 74.5736C183.264 74.5736 183.755 74.3734 184.222 73.967V73.1838H182.63C182.441 73.1838 182.305 73.2368 182.228 73.331C182.151 73.4252 182.11 73.5607 182.11 73.7374L182.116 73.7433Z" fill="#575756"/>
<path d="M188.359 73.5194L187.146 73.2191C186.785 73.1249 186.525 72.9835 186.377 72.7951C186.229 72.6066 186.152 72.3357 186.152 71.9824C186.152 71.4995 186.282 71.1815 186.542 71.0107C186.803 70.8458 187.247 70.7633 187.88 70.7692C188.578 70.781 189.194 70.8281 189.738 70.9164L189.667 71.5407C188.756 71.5112 188.205 71.4995 188.016 71.4995C187.596 71.4995 187.318 71.523 187.187 71.576C187.063 71.629 186.998 71.7586 186.998 71.9824C186.998 72.0825 187.01 72.1649 187.022 72.2238C187.039 72.2886 187.087 72.3357 187.158 72.3769C187.229 72.4182 187.288 72.4476 187.335 72.4594C187.377 72.4712 187.466 72.5006 187.614 72.5418L188.845 72.8422C189.211 72.9364 189.478 73.0719 189.632 73.2485C189.786 73.4252 189.862 73.6961 189.862 74.0612C189.862 74.5736 189.72 74.9093 189.436 75.0683C189.152 75.2332 188.661 75.3156 187.969 75.3156C187.359 75.3156 186.785 75.2744 186.235 75.1919L186.3 74.5559C186.631 74.5854 187.128 74.5971 187.791 74.5971C188.282 74.5971 188.608 74.5618 188.774 74.497C188.939 74.4263 189.022 74.285 189.022 74.0671C189.022 73.9729 189.01 73.8904 188.987 73.8316C188.963 73.7668 188.916 73.7197 188.833 73.6725C188.756 73.6313 188.697 73.6019 188.649 73.5901C188.608 73.5783 188.507 73.5489 188.359 73.5135V73.5194Z" fill="#575756"/>
<path d="M191.792 69.0085V70.5632C191.792 70.9578 191.762 71.2876 191.703 71.5467C192.188 71.0284 192.739 70.7752 193.348 70.7752C193.887 70.7752 194.289 70.9519 194.544 71.3052C194.798 71.6586 194.928 72.2357 194.928 73.0366C194.928 73.8375 194.781 74.3911 194.496 74.7621C194.206 75.139 193.697 75.3275 192.964 75.3275C192.182 75.3275 191.502 75.2215 190.928 75.0154V68.9967H191.792V69.0085ZM191.792 72.1238V74.4795C192.147 74.5678 192.532 74.6149 192.946 74.6149C193.348 74.609 193.626 74.4912 193.786 74.2616C193.946 74.0319 194.029 73.6255 194.035 73.0425C194.029 72.4595 193.964 72.059 193.828 71.847C193.697 71.6291 193.431 71.5231 193.041 71.5231C192.839 71.5231 192.644 71.5702 192.466 71.6645C192.283 71.7587 192.058 71.9118 191.792 72.1238Z" fill="#575756"/>
<path d="M196.935 69.0084V73.9788C196.929 74.1614 196.97 74.3027 197.065 74.3911C197.16 74.4853 197.302 74.5324 197.491 74.5324H197.893L197.988 75.1979C197.817 75.2744 197.538 75.3156 197.16 75.3156C196.822 75.3156 196.55 75.2155 196.355 75.0153C196.159 74.8151 196.059 74.5383 196.059 74.1732V69.0084H196.923H196.935Z" fill="#575756"/>
<path d="M48.2335 21.4599C48.2335 21.1831 48.0086 20.9593 47.7305 20.9593H40.8831C40.6049 20.9593 40.38 20.7355 40.38 20.4587V17.8558C40.38 17.579 40.6049 17.3552 40.8831 17.3552H45.2152C45.4934 17.3552 45.7183 17.1314 45.7183 16.8546V13.4566C45.7183 13.1798 45.4934 12.956 45.2152 12.956H40.8831C40.6049 12.956 40.38 12.7322 40.38 12.4555V7.7795C40.38 7.50272 40.1551 7.27893 39.877 7.27893H36.4622C36.184 7.27893 35.9591 7.50272 35.9591 7.7795V12.4555C35.9591 12.7322 35.7342 12.956 35.4561 12.956H31.1239C30.8458 12.956 30.6209 13.1798 30.6209 13.4566V16.8546C30.6209 17.1314 30.8458 17.3552 31.1239 17.3552H35.4561C35.7342 17.3552 35.9591 17.579 35.9591 17.8558V20.4587C35.9591 20.7355 35.7342 20.9593 35.4561 20.9593H28.6087C28.3305 20.9593 28.1057 21.1831 28.1057 21.4599V24.8579C28.1057 25.1347 28.3305 25.3585 28.6087 25.3585H35.4561C35.7342 25.3585 35.9591 25.5823 35.9591 25.859V65.1982C35.9591 65.475 36.184 65.6988 36.4622 65.6988H39.877C40.1551 65.6988 40.38 65.475 40.38 65.1982V25.859C40.38 25.5823 40.6049 25.3585 40.8831 25.3585H47.7305C48.0086 25.3585 48.2335 25.1347 48.2335 24.8579V21.4599Z" fill="white"/>
<path d="M36.3083 63.5964C36.3083 64.5151 35.6573 65.6399 34.8583 66.0992L19.6071 74.8622C18.8081 75.3216 17.5002 75.3216 16.7012 74.8622L1.44996 66.0992C0.651004 65.6399 0 64.5151 0 63.5964V46.0763C0 45.1576 0.651004 44.0328 1.44996 43.5734L16.7012 34.8105C17.5002 34.3511 18.8081 34.3511 19.6071 34.8105L34.8583 43.5734C35.6573 44.0328 36.3083 45.1576 36.3083 46.0763V63.5964Z" fill="#575756"/>
<path d="M20.7138 60.2396C21.6252 62.9309 21.8856 64.3914 21.6666 66.2465C21.4121 68.4608 20.0983 70.2864 18.1689 70.2864C16.2396 70.2864 14.9021 68.4666 14.6653 66.2465C14.5115 64.7801 14.8192 62.7365 15.6063 60.3573C16.5355 57.5247 18.1157 54.8334 18.1157 54.8334C18.1157 54.8334 19.7668 57.4481 20.7138 60.2396Z" fill="white"/>
<path d="M24.1167 55.3104C26.9101 55.8699 28.3128 56.3822 29.816 57.4953C31.6151 58.8262 32.5443 60.8638 31.5796 62.5304C30.6149 64.1971 28.3601 64.4326 26.3124 63.5257C24.963 62.925 23.3355 61.6353 21.6607 59.7743C19.6603 57.5483 18.1157 54.8452 18.1157 54.8452C18.1157 54.8452 21.2109 54.7333 24.1167 55.3163V55.3104Z" fill="white"/>
<path d="M14.6357 49.9513C12.7182 47.8548 11.5583 46.9126 9.83015 46.2C7.75877 45.3461 5.52168 45.5993 4.58068 47.2777C3.63969 48.9561 4.59252 51.0055 6.42717 52.2834C7.6404 53.1256 9.58158 53.8558 12.0495 54.3328C14.9908 54.8982 18.1216 54.8334 18.1216 54.8334C18.1216 54.8334 16.6302 52.1303 14.6357 49.9513Z" fill="white"/>
<path d="M21.5009 49.8866C23.377 47.7488 24.5192 46.7889 26.2295 46.041C28.2832 45.1459 30.5262 45.352 31.4968 47.0127C32.4673 48.6734 31.5619 50.7346 29.7568 52.0538C28.5672 52.9254 26.632 53.6851 24.1759 54.2151C21.2464 54.8393 18.1157 54.8334 18.1157 54.8334C18.1157 54.8334 19.5538 52.1009 21.5009 49.8807V49.8866Z" fill="white"/>
<path d="M18.1157 54.8393C18.1157 54.8393 16.4645 52.2304 15.5176 49.439C14.6062 46.7536 14.3458 45.2872 14.5588 43.438C14.8133 41.2237 16.1272 39.3981 18.0565 39.3981C19.9918 39.3981 21.3234 41.2178 21.5601 43.438C21.714 44.9044 21.4062 46.9479 20.625 49.3271" fill="white"/>
<path d="M14.7364 59.7921C12.8603 61.9298 11.724 62.8898 10.0077 63.6377C7.95411 64.5328 5.71702 64.3267 4.74051 62.666C3.76993 61.0052 4.67541 58.9441 6.48047 57.6249C7.67595 56.7533 9.60529 55.9936 12.0614 55.4636C14.9909 54.8335 18.1216 54.8394 18.1216 54.8394C18.1216 54.8394 16.6835 57.5719 14.7364 59.7921Z" fill="white"/>
<path d="M20.2048 54.8393C20.2048 55.9877 19.2757 56.9182 18.1216 56.9182C16.9676 56.9182 16.0384 55.9877 16.0384 54.8393C16.0384 53.6909 16.9735 52.7664 18.1216 52.7664C19.2697 52.7664 20.2048 53.6968 20.2048 54.8393Z" fill="#E4032E"/>
</g>
<defs>
<clipPath id="clip0_1_503">
<rect width="198" height="77" fill="white"/>
</clipPath>
</defs>
</svg>
