<svg width="437" height="672" viewBox="0 0 437 672" fill="none" xmlns="http://www.w3.org/2000/svg">
<path d="M357.141 114.697C363.406 118.314 368.537 127.143 368.552 134.351L368.802 271.931C368.817 279.139 363.713 287.979 357.463 291.57L238.191 360.143C231.941 363.735 221.729 363.706 215.464 360.088L95.9824 291.106C89.7172 287.488 84.5865 278.66 84.5715 271.451L84.3218 133.872C84.3068 126.663 89.4104 117.824 95.6606 114.233L214.893 45.6359C221.143 42.0447 231.354 42.0736 237.619 45.6909L357.101 114.674L357.141 114.697Z" fill="#EEEEEF"/>
<path d="M203.755 380.369C210.021 383.986 215.151 392.814 215.166 400.023L215.416 537.602C215.431 544.811 210.327 553.65 204.077 557.242L84.8051 625.815C78.5549 629.406 68.3437 629.377 62.0784 625.76L-57.4033 556.777C-63.6685 553.16 -68.7992 544.331 -68.8142 537.123L-69.0639 399.544C-69.0789 392.335 -63.9753 383.495 -57.7251 379.904L61.5068 311.308C67.757 307.716 77.9682 307.745 84.2335 311.363L203.715 380.345L203.755 380.369Z" fill="#EEEEEF"/>
</svg>
