<svg width="812" height="585" viewBox="0 0 812 585" fill="none" xmlns="http://www.w3.org/2000/svg">
<path d="M706.614 2.01838L706.614 2.01851L655.368 31.2708C655.368 31.2708 655.368 31.2709 655.368 31.2709C654.214 31.9299 653.111 33.1063 652.293 34.5085C651.476 35.9113 651 37.4439 651 38.7574V38.7771V97.2622C651 98.5758 651.476 100.108 652.293 101.511C653.111 102.913 654.214 104.09 655.368 104.749L706.614 2.01838ZM706.614 2.01838C707.768 1.35909 709.356 1 711 1C712.644 1 714.232 1.35909 715.386 2.01838L715.386 2.01851L766.632 31.2708C767.786 31.9298 768.889 33.1063 769.707 34.5085C770.524 35.9113 771 37.4439 771 38.7574V97.2426C771 98.5561 770.524 100.089 769.707 101.491C768.889 102.894 767.786 104.07 766.632 104.729C766.632 104.729 766.632 104.729 766.632 104.729L715.386 133.981L715.386 133.982C714.232 134.641 712.644 135 711 135C709.356 135 707.768 134.641 706.614 133.982L706.614 133.981L655.368 104.749L706.614 2.01838Z" stroke="white" stroke-width="2"/>
<path d="M510.16 113.024L510.16 113.023C511.302 112.361 512.873 112 514.5 112C516.127 112 517.698 112.361 518.84 113.023L518.84 113.024L569.666 142.491C569.666 142.491 569.666 142.491 569.666 142.491C570.809 143.154 571.903 144.338 572.715 145.753C573.527 147.167 574 148.714 574 150.042V208.958C574 210.286 573.527 211.833 572.715 213.247C571.903 214.662 570.809 215.846 569.666 216.509C569.666 216.509 569.666 216.509 569.666 216.509L518.84 245.976L518.84 245.977C517.698 246.639 516.127 247 514.5 247C512.873 247 511.302 246.639 510.16 245.977L510.159 245.976L459.334 216.529C458.192 215.866 457.097 214.681 456.285 213.267C455.473 211.853 455 210.306 455 208.977V150.062V150.042C455 148.714 455.473 147.167 456.285 145.753C457.097 144.338 458.191 143.154 459.334 142.491C459.334 142.491 459.334 142.491 459.334 142.491L510.16 113.024Z" stroke="white" stroke-width="2"/>
<path d="M773.16 113.024L773.16 113.023C774.302 112.361 775.873 112 777.5 112C779.127 112 780.698 112.361 781.84 113.023L781.84 113.024L832.666 142.491C832.666 142.491 832.666 142.491 832.666 142.491C833.809 143.154 834.903 144.338 835.715 145.753C836.527 147.167 837 148.714 837 150.042V208.958C837 210.286 836.527 211.833 835.715 213.247C834.903 214.662 833.809 215.846 832.666 216.509C832.666 216.509 832.666 216.509 832.666 216.509L781.84 245.976L781.84 245.977C780.698 246.639 779.127 247 777.5 247C775.873 247 774.302 246.639 773.16 245.977L773.159 245.976L722.334 216.529C721.192 215.866 720.097 214.681 719.285 213.267C718.473 211.853 718 210.306 718 208.977V150.062V150.042C718 148.714 718.473 147.167 719.285 145.753C720.097 144.338 721.191 143.154 722.334 142.491C722.334 142.491 722.334 142.491 722.334 142.491L773.16 113.024Z" stroke="white" stroke-width="2"/>
<path d="M705.16 225.024L705.16 225.023C706.302 224.361 707.873 224 709.5 224C711.127 224 712.698 224.361 713.84 225.023L713.84 225.024L764.666 254.491C764.666 254.491 764.666 254.491 764.666 254.491C765.809 255.154 766.903 256.338 767.715 257.753C768.527 259.167 769 260.714 769 262.042V320.958C769 322.286 768.527 323.833 767.715 325.247C766.903 326.662 765.809 327.846 764.666 328.509C764.666 328.509 764.666 328.509 764.666 328.509L713.84 357.976L713.84 357.977C712.698 358.639 711.127 359 709.5 359C707.873 359 706.302 358.639 705.16 357.977L705.159 357.976L654.334 328.529C653.192 327.866 652.097 326.681 651.285 325.267C650.473 323.853 650 322.306 650 320.977V262.062V262.042C650 260.714 650.473 259.167 651.285 257.753C652.097 256.338 653.191 255.154 654.334 254.491C654.334 254.491 654.334 254.491 654.334 254.491L705.16 225.024Z" stroke="white" stroke-width="2"/>
<path d="M381.614 338.018L381.614 338.019L330.368 367.271C330.368 367.271 330.368 367.271 330.368 367.271C329.214 367.93 328.111 369.106 327.293 370.509C326.476 371.911 326 373.444 326 374.757V374.777V433.262C326 434.576 326.476 436.108 327.293 437.511C328.111 438.913 329.214 440.09 330.368 440.749L381.614 338.018ZM381.614 338.018C382.768 337.359 384.356 337 386 337C387.644 337 389.232 337.359 390.386 338.018L390.386 338.019L441.632 367.271C442.786 367.93 443.889 369.106 444.707 370.509C445.524 371.911 446 373.444 446 374.757V433.243C446 434.556 445.524 436.089 444.707 437.491C443.889 438.894 442.786 440.07 441.632 440.729C441.632 440.729 441.632 440.729 441.632 440.729L390.386 469.981L390.386 469.982C389.232 470.641 387.644 471 386 471C384.356 471 382.768 470.641 381.614 469.982L381.614 469.981L330.368 440.749L381.614 338.018Z" stroke="white" stroke-width="2"/>
<path d="M576.614 2.01838L576.614 2.01851L525.368 31.2708C525.368 31.2708 525.368 31.2709 525.368 31.2709C524.214 31.9299 523.111 33.1063 522.293 34.5085C521.476 35.9113 521 37.4439 521 38.7574V38.7771V97.2622C521 98.5758 521.476 100.108 522.293 101.511C523.111 102.913 524.214 104.09 525.368 104.749L576.614 2.01838ZM576.614 2.01838C577.768 1.35909 579.356 1 581 1C582.644 1 584.232 1.35909 585.386 2.01838L585.386 2.01851L636.632 31.2708C637.786 31.9298 638.889 33.1063 639.707 34.5085C640.524 35.9113 641 37.4439 641 38.7574V97.2426C641 98.5561 640.524 100.089 639.707 101.491C638.889 102.894 637.786 104.07 636.632 104.729C636.632 104.729 636.632 104.729 636.632 104.729L585.386 133.981L585.386 133.982C584.232 134.641 582.644 135 581 135C579.356 135 577.768 134.641 576.614 133.982L576.614 133.981L525.368 104.749L576.614 2.01838Z" stroke="white" stroke-width="2"/>
<path d="M381.617 113.025L381.616 113.025L330.371 142.493C330.371 142.493 330.371 142.493 330.371 142.493C329.217 143.157 328.113 144.342 327.295 145.756C326.477 147.17 326 148.716 326 150.042V150.062V208.977C326 210.304 326.477 211.85 327.295 213.264C328.113 214.678 329.217 215.863 330.37 216.527L381.617 113.025ZM381.617 113.025C382.77 112.361 384.357 112 386 112C387.643 112 389.23 112.361 390.383 113.025L390.384 113.025L441.629 142.493C442.783 143.156 443.887 144.342 444.705 145.756C445.523 147.17 446 148.716 446 150.042V208.958C446 210.284 445.523 211.83 444.705 213.244C443.887 214.658 442.783 215.844 441.629 216.507L390.384 245.975L390.383 245.975C389.23 246.639 387.643 247 386 247C384.357 247 382.77 246.639 381.617 245.975L381.616 245.974L330.371 216.527L381.617 113.025Z" stroke="white" stroke-width="2"/>
<path d="M120.16 113.024L120.16 113.023C121.302 112.361 122.873 112 124.5 112C126.127 112 127.698 112.361 128.84 113.023L128.84 113.024L179.666 142.491C179.666 142.491 179.666 142.491 179.666 142.491C180.809 143.154 181.903 144.338 182.715 145.753C183.527 147.167 184 148.714 184 150.042V208.958C184 210.286 183.527 211.833 182.715 213.247C181.903 214.662 180.809 215.846 179.666 216.509C179.666 216.509 179.666 216.509 179.666 216.509L128.84 245.976L128.84 245.977C127.698 246.639 126.127 247 124.5 247C122.873 247 121.302 246.639 120.16 245.977L120.159 245.976L69.3339 216.529C68.1915 215.866 67.0967 214.681 66.2849 213.267C65.4732 211.853 65 210.306 65 208.977V150.062V150.042C65 148.714 65.4732 147.167 66.2849 145.753C67.0966 144.338 68.1914 143.154 69.3337 142.491C69.3338 142.491 69.3338 142.491 69.3339 142.491L120.16 113.024Z" stroke="white" stroke-width="2"/>
<path d="M576.617 225.025L576.616 225.025L525.371 254.493C525.371 254.493 525.371 254.493 525.371 254.493C524.217 255.157 523.113 256.342 522.295 257.756C521.477 259.17 521 260.716 521 262.042V262.062V320.977C521 322.304 521.477 323.85 522.295 325.264C523.113 326.678 524.217 327.863 525.37 328.527L576.617 225.025ZM576.617 225.025C577.77 224.361 579.357 224 581 224C582.643 224 584.23 224.361 585.383 225.025L585.384 225.025L636.629 254.493C637.783 255.156 638.887 256.342 639.705 257.756C640.523 259.17 641 260.716 641 262.042V320.958C641 322.284 640.523 323.83 639.705 325.244C638.887 326.658 637.783 327.844 636.629 328.507L585.384 357.975L585.383 357.975C584.23 358.639 582.643 359 581 359C579.357 359 577.77 358.639 576.617 357.975L576.616 357.974L525.371 328.527L576.617 225.025Z" stroke="white" stroke-width="2"/>
<path d="M446.617 225.025L446.616 225.025L395.371 254.493C395.371 254.493 395.371 254.493 395.371 254.493C394.217 255.157 393.113 256.342 392.295 257.756C391.477 259.17 391 260.716 391 262.042V262.062V320.977C391 322.304 391.477 323.85 392.295 325.264C393.113 326.678 394.217 327.863 395.37 328.527L446.617 225.025ZM446.617 225.025C447.77 224.361 449.357 224 451 224C452.643 224 454.23 224.361 455.383 225.025L455.384 225.025L506.629 254.493C507.783 255.156 508.887 256.342 509.705 257.756C510.523 259.17 511 260.716 511 262.042V320.958C511 322.284 510.523 323.83 509.705 325.244C508.887 326.658 507.783 327.844 506.629 328.507L455.384 357.975L455.383 357.975C454.23 358.639 452.643 359 451 359C449.357 359 447.77 358.639 446.617 357.975L446.616 357.974L395.371 328.527L446.617 225.025Z" stroke="white" stroke-width="2"/>
<path d="M641.157 338.017L641.157 338.017L590.331 367.269C589.189 367.927 588.094 369.103 587.283 370.505C586.472 371.908 586 373.442 586 374.757V374.777V433.262C586 434.578 586.472 436.111 587.283 437.514C588.094 438.917 589.188 440.092 590.331 440.75L641.157 338.017ZM641.157 338.017C642.3 337.359 643.872 337 645.5 337C647.128 337 648.7 337.359 649.843 338.017L649.843 338.017L700.669 367.269C701.811 367.927 702.906 369.103 703.717 370.505C704.528 371.908 705 373.442 705 374.757V433.243C705 434.558 704.528 436.092 703.717 437.495C702.906 438.897 701.812 440.073 700.669 440.731C700.669 440.731 700.669 440.731 700.669 440.731L649.843 469.983L649.843 469.983C648.7 470.641 647.128 471 645.5 471C643.872 471 642.3 470.641 641.157 469.983L641.157 469.983L590.331 440.751L641.157 338.017Z" stroke="white" stroke-width="2"/>
<path d="M251.16 113.024L251.16 113.023C252.302 112.361 253.873 112 255.5 112C257.127 112 258.698 112.361 259.84 113.023L259.84 113.024L310.666 142.491C310.666 142.491 310.666 142.491 310.666 142.491C311.809 143.154 312.903 144.338 313.715 145.753C314.527 147.167 315 148.714 315 150.042V208.958C315 210.286 314.527 211.833 313.715 213.247C312.903 214.662 311.809 215.846 310.666 216.509C310.666 216.509 310.666 216.509 310.666 216.509L259.84 245.976L259.84 245.977C258.698 246.639 257.127 247 255.5 247C253.873 247 252.302 246.639 251.16 245.977L251.159 245.976L200.334 216.529C199.192 215.866 198.097 214.681 197.285 213.267C196.473 211.853 196 210.306 196 208.977V150.062V150.042C196 148.714 196.473 147.167 197.285 145.753C198.097 144.338 199.191 143.154 200.334 142.491C200.334 142.491 200.334 142.491 200.334 142.491L251.16 113.024Z" stroke="white" stroke-width="2"/>
<path d="M641.617 113.025L641.616 113.025L590.371 142.493C590.371 142.493 590.371 142.493 590.371 142.493C589.217 143.157 588.113 144.342 587.295 145.756C586.477 147.17 586 148.716 586 150.042V150.062V208.977C586 210.304 586.477 211.85 587.295 213.264C588.113 214.678 589.217 215.863 590.37 216.527L641.617 113.025ZM641.617 113.025C642.77 112.361 644.357 112 646 112C647.643 112 649.23 112.361 650.383 113.025L650.384 113.025L701.629 142.493C702.783 143.156 703.887 144.342 704.705 145.756C705.523 147.17 706 148.716 706 150.042V208.958C706 210.284 705.523 211.83 704.705 213.244C703.887 214.658 702.783 215.844 701.629 216.507L650.384 245.975L650.383 245.975C649.23 246.639 647.643 247 646 247C644.357 247 642.77 246.639 641.617 245.975L641.616 245.974L590.371 216.527L641.617 113.025Z" stroke="white" stroke-width="2"/>
<path d="M316.617 225.025L316.616 225.025L265.371 254.493C265.371 254.493 265.371 254.493 265.371 254.493C264.217 255.157 263.113 256.342 262.295 257.756C261.477 259.17 261 260.716 261 262.042V262.062V320.977C261 322.304 261.477 323.85 262.295 325.264C263.113 326.678 264.217 327.863 265.37 328.527L316.617 225.025ZM316.617 225.025C317.77 224.361 319.357 224 321 224C322.643 224 324.23 224.361 325.383 225.025L325.384 225.025L376.629 254.493C377.783 255.156 378.887 256.342 379.705 257.756C380.523 259.17 381 260.716 381 262.042V320.958C381 322.284 380.523 323.83 379.705 325.244C378.887 326.658 377.783 327.844 376.629 328.507L325.384 357.975L325.383 357.975C324.23 358.639 322.643 359 321 359C319.357 359 317.77 358.639 316.617 357.975L316.616 357.974L265.371 328.527L316.617 225.025Z" stroke="white" stroke-width="2"/>
<path d="M837.16 225.024L837.16 225.023C838.302 224.361 839.873 224 841.5 224C843.127 224 844.698 224.361 845.84 225.023L845.84 225.024L896.666 254.491C896.666 254.491 896.666 254.491 896.666 254.491C897.809 255.154 898.903 256.338 899.715 257.753C900.527 259.167 901 260.714 901 262.042V320.958C901 322.286 900.527 323.833 899.715 325.247C898.903 326.662 897.809 327.846 896.666 328.509C896.666 328.509 896.666 328.509 896.666 328.509L845.84 357.976L845.84 357.977C844.698 358.639 843.127 359 841.5 359C839.873 359 838.302 358.639 837.16 357.977L837.159 357.976L786.334 328.529C785.192 327.866 784.097 326.681 783.285 325.267C782.473 323.853 782 322.306 782 320.977V262.062V262.042C782 260.714 782.473 259.167 783.285 257.753C784.097 256.338 785.191 255.154 786.334 254.491C786.334 254.491 786.334 254.491 786.334 254.491L837.16 225.024Z" stroke="white" stroke-width="2"/>
<path d="M510.157 338.017L510.157 338.017L459.331 367.269C458.189 367.927 457.094 369.103 456.283 370.505C455.472 371.908 455 373.442 455 374.757V374.777V433.262C455 434.578 455.472 436.111 456.283 437.514C457.094 438.917 458.188 440.092 459.331 440.75L510.157 338.017ZM510.157 338.017C511.3 337.359 512.872 337 514.5 337C516.128 337 517.7 337.359 518.843 338.017L518.843 338.017L569.669 367.269C570.811 367.927 571.906 369.103 572.717 370.505C573.528 371.908 574 373.442 574 374.757V433.243C574 434.558 573.528 436.092 572.717 437.495C571.906 438.897 570.812 440.073 569.669 440.731C569.669 440.731 569.669 440.731 569.669 440.731L518.843 469.983L518.843 469.983C517.7 470.641 516.128 471 514.5 471C512.872 471 511.3 470.641 510.157 469.983L510.157 469.983L459.331 440.751L510.157 338.017Z" stroke="white" stroke-width="2"/>
<path d="M568.157 451.017L568.157 451.017L517.331 480.269C516.189 480.927 515.094 482.103 514.283 483.505C513.472 484.908 513 486.442 513 487.757V487.777V546.262C513 547.578 513.472 549.111 514.283 550.514C515.094 551.917 516.188 553.092 517.331 553.75L568.157 451.017ZM568.157 451.017C569.3 450.359 570.872 450 572.5 450C574.128 450 575.7 450.359 576.843 451.017L576.843 451.017L627.669 480.269C628.811 480.927 629.906 482.103 630.717 483.505C631.528 484.908 632 486.442 632 487.757V546.243C632 547.558 631.528 549.092 630.717 550.495C629.906 551.897 628.812 553.073 627.669 553.731C627.669 553.731 627.669 553.731 627.669 553.731L576.843 582.983L576.843 582.983C575.7 583.641 574.128 584 572.5 584C570.872 584 569.3 583.641 568.157 582.983L568.157 582.983L517.331 553.751L568.157 451.017Z" stroke="white" stroke-width="2"/>
</svg>
