<svg width="573" height="672" viewBox="0 0 573 672" fill="none" xmlns="http://www.w3.org/2000/svg">
<path d="M493.723 114.697C499.989 118.314 505.119 127.143 505.134 134.351L505.384 271.931C505.399 279.139 500.295 287.979 494.045 291.57L374.773 360.143C368.523 363.735 358.312 363.706 352.047 360.088L232.565 291.106C226.3 287.488 221.169 278.66 221.154 271.451L220.904 133.872C220.889 126.663 225.993 117.824 232.243 114.233L351.475 45.6359C357.725 42.0447 367.936 42.0737 374.202 45.6909L493.683 114.674L493.723 114.697Z" fill="#EEEEEF"/>
<path d="M340.338 380.369C346.603 383.986 351.734 392.814 351.749 400.023L351.998 537.602C352.013 544.811 346.91 553.65 340.66 557.242L221.387 625.815C215.137 629.406 204.926 629.377 198.661 625.76L79.1791 556.777C72.9138 553.16 67.7832 544.331 67.7681 537.123L67.5184 399.544C67.5034 392.335 72.607 383.495 78.8572 379.904L198.089 311.308C204.339 307.716 214.551 307.745 220.816 311.363L340.297 380.345L340.338 380.369Z" fill="#EEEEEF"/>
</svg>
