<svg width="878" height="675" viewBox="0 0 878 675" fill="none" xmlns="http://www.w3.org/2000/svg">
<path d="M798.141 114.697C804.406 118.314 809.537 127.143 809.552 134.351L809.802 271.931C809.817 279.139 804.713 287.979 798.463 291.57L679.191 360.143C672.94 363.735 662.729 363.706 656.464 360.088L536.982 291.106C530.717 287.488 525.586 278.66 525.571 271.451L525.322 133.872C525.307 126.663 530.41 117.824 536.66 114.233L655.892 45.6359C662.143 42.0447 672.354 42.0737 678.619 45.6909L798.101 114.674L798.141 114.697Z" fill="#E20031"/>
<path d="M644.755 380.369C651.02 383.986 656.151 392.814 656.166 400.023L656.416 537.602C656.431 544.811 651.327 553.65 645.077 557.242L525.805 625.815C519.555 629.406 509.343 629.377 503.078 625.76L383.597 556.777C377.331 553.16 372.201 544.331 372.186 537.123L371.936 399.544C371.921 392.335 377.024 383.495 383.275 379.904L502.507 311.308C508.757 307.716 518.968 307.745 525.233 311.363L644.715 380.345L644.755 380.369Z" fill="#EEEEEF"/>
<path d="M341.509 381.052C347.774 384.669 352.883 393.534 352.873 400.787L352.631 539.218C352.62 546.471 347.474 555.384 341.198 559.02L221.434 628.445C215.158 632.081 204.926 632.089 198.661 628.471L79.1791 559.489C72.9138 555.871 67.8042 547.006 67.8149 539.753L68.057 401.322C68.0678 394.069 73.2136 385.156 79.4895 381.52L199.213 312.072C205.489 308.436 215.721 308.429 221.987 312.046L341.468 381.029L341.509 381.052Z" fill="#EEEEEF"/>
</svg>
