<svg width="717" height="675" viewBox="0 0 717 675" fill="none" xmlns="http://www.w3.org/2000/svg">
<path d="M798.821 114.96C805.086 118.577 810.217 127.405 810.232 134.614L810.481 272.193C810.497 279.402 805.393 288.241 799.143 291.833L679.871 360.406C673.62 363.997 663.409 363.968 657.144 360.351L537.662 291.368C531.397 287.751 526.266 278.922 526.251 271.714L526.002 134.135C525.987 126.926 531.09 118.086 537.34 114.495L656.572 45.8986C662.823 42.3074 673.034 42.3363 679.299 45.9536L798.781 114.936L798.821 114.96Z" fill="#E20031"/>
<path d="M645.435 380.631C651.7 384.248 656.831 393.077 656.846 400.286L657.096 537.865C657.111 545.073 652.007 553.913 645.757 557.504L526.485 626.078C520.235 629.669 510.023 629.64 503.758 626.023L384.276 557.04C378.011 553.423 372.881 544.594 372.866 537.386L372.616 399.806C372.601 392.598 377.704 383.758 383.955 380.167L503.187 311.57C509.437 307.979 519.648 308.008 525.913 311.625L645.395 380.608L645.435 380.631Z" fill="#EEEEEF"/>
<path d="M342.188 381.314C348.454 384.932 353.563 393.797 353.553 401.05L353.311 539.481C353.3 546.734 348.154 555.647 341.878 559.283L222.114 628.708C215.838 632.344 205.606 632.351 199.341 628.734L79.859 559.751C73.5938 556.134 68.4841 547.269 68.4948 540.016L68.737 401.585C68.7477 394.332 73.8935 385.419 80.1695 381.783L199.893 312.334C206.169 308.699 216.401 308.691 222.667 312.308L342.148 381.291L342.188 381.314Z" fill="#EEEEEF"/>
</svg>
