<svg width="24" height="24" viewBox="0 0 24 24" fill="none" xmlns="http://www.w3.org/2000/svg">
<path d="M19.8841 2.8468H4.3352C3.4856 2.8468 2.74326 3.45813 2.74326 4.29775V19.8811C2.74326 20.7254 3.4856 21.4777 4.3352 21.4777H19.8795C20.7337 21.4777 21.3741 20.7204 21.3741 19.8811V4.29775C21.3791 3.45813 20.7337 2.8468 19.8841 2.8468ZM8.51842 18.3765H5.84938V10.0779H8.51842V18.3765ZM7.27622 8.81617H7.25709C6.40291 8.81617 5.84979 8.1803 5.84979 7.38433C5.84979 6.57381 6.41746 5.9529 7.29078 5.9529C8.16409 5.9529 8.69848 6.56922 8.71762 7.38433C8.7172 8.1803 8.16409 8.81617 7.27622 8.81617ZM18.273 18.3765H15.604V13.839C15.604 12.7519 15.2155 12.0092 14.2499 12.0092C13.5121 12.0092 13.0755 12.5082 12.8813 12.9944C12.8085 13.169 12.789 13.4069 12.789 13.6498V18.3765H10.1199V10.0779H12.789V11.2328C13.1774 10.6797 13.7841 9.88369 15.196 9.88369C16.948 9.88369 18.2734 11.0385 18.2734 13.5283L18.273 18.3765Z" fill="#E4032E"/>
</svg>
